<svg width="818" height="463" viewBox="0 0 818 463" fill="none" xmlns="http://www.w3.org/2000/svg">
<g filter="url(#filter0_d_8_340)">
<path d="M32 144C32 129.641 43.6406 118 58 118H439C453.359 118 465 129.641 465 144V381C465 395.359 453.359 407 439 407H58C43.6406 407 32 395.359 32 381V144Z" fill="#242742"/>
</g>
<g filter="url(#filter1_d_8_340)">
<path d="M48 144C48 137.925 52.9249 133 59 133H438C444.075 133 449 137.925 449 144V381C449 387.075 444.075 392 438 392H59C52.9249 392 48 387.075 48 381V144Z" fill="url(#paint0_linear_8_340)"/>
</g>
<mask id="mask0_8_340" style="mask-type:alpha" maskUnits="userSpaceOnUse" x="48" y="133" width="401" height="259">
<path d="M48 144C48 137.925 52.9249 133 59 133H438C444.075 133 449 137.925 449 144V381C449 387.075 444.075 392 438 392H59C52.9249 392 48 387.075 48 381V144Z" fill="url(#paint1_linear_8_340)"/>
</mask>
<g mask="url(#mask0_8_340)">
<circle cx="438" cy="377" r="158" fill="url(#paint2_linear_8_340)"/>
<circle cx="184.446" cy="98.4457" r="158" transform="rotate(-135 184.446 98.4457)" fill="url(#paint3_linear_8_340)"/>
</g>
<g filter="url(#filter2_d_8_340)">
<path d="M353 33C353 26.9249 357.925 22 364 22H775C781.075 22 786 26.9249 786 33V262C786 268.075 781.075 273 775 273H364C357.925 273 353 268.075 353 262V33Z" fill="url(#paint4_linear_8_340)"/>
</g>
<path d="M353 33C353 26.9249 357.925 22 364 22H449V273H364C357.925 273 353 268.075 353 262V33Z" fill="url(#paint5_linear_8_340)"/>
<path d="M367 72.5C367 70.567 368.567 69 370.5 69H431.5C433.433 69 435 70.567 435 72.5C435 74.433 433.433 76 431.5 76H370.5C368.567 76 367 74.433 367 72.5Z" fill="#BABBDB"/>
<path d="M367 92.5C367 90.567 368.567 89 370.5 89H424.5C426.433 89 428 90.567 428 92.5C428 94.433 426.433 96 424.5 96H370.5C368.567 96 367 94.433 367 92.5Z" fill="#BABBDB"/>
<path d="M367 112.5C367 110.567 368.567 109 370.5 109H431.5C433.433 109 435 110.567 435 112.5C435 114.433 433.433 116 431.5 116H370.5C368.567 116 367 114.433 367 112.5Z" fill="#BABBDB"/>
<path d="M367 132.5C367 130.567 368.567 129 370.5 129H409.5C411.433 129 413 130.567 413 132.5C413 134.433 411.433 136 409.5 136H370.5C368.567 136 367 134.433 367 132.5Z" fill="#BABBDB"/>
<path d="M353 33C353 26.9249 357.925 22 364 22H775C781.075 22 786 26.9249 786 33V53H353V33Z" fill="#242742"/>
<circle cx="375.5" cy="37.5" r="6.5" fill="#FF6464"/>
<circle cx="397.5" cy="37.5" r="6.5" fill="#FF9255"/>
<circle cx="419.5" cy="37.5" r="6.5" fill="#6BD5A8"/>
<path d="M470 4C470 1.79086 471.791 0 474 0H564C566.209 0 568 1.79086 568 4V126C568 128.209 566.209 130 564 130H474C471.791 130 470 128.209 470 126V4Z" fill="white"/>
<mask id="mask1_8_340" style="mask-type:alpha" maskUnits="userSpaceOnUse" x="470" y="0" width="98" height="130">
<path d="M470 4C470 1.79086 471.791 0 474 0H564C566.209 0 568 1.79086 568 4V126C568 128.209 566.209 130 564 130H474C471.791 130 470 128.209 470 126V4Z" fill="white"/>
</mask>
<g mask="url(#mask1_8_340)">
<path fill-rule="evenodd" clip-rule="evenodd" d="M578.121 28.878C579.293 30.0492 579.293 31.9487 578.122 33.1207L552.847 58.4114C548.499 62.7621 541.446 62.7621 537.098 58.4114C535.094 56.4055 531.842 56.4055 529.838 58.4114L512.406 75.8532C509.021 79.2408 503.53 79.2408 500.144 75.8532C499.102 74.8105 497.412 74.8105 496.37 75.8532L464.122 108.121C462.951 109.293 461.051 109.293 459.879 108.122C458.707 106.951 458.707 105.051 459.878 103.879L492.126 71.6119C495.511 68.2243 501.002 68.2243 504.388 71.6119C505.43 72.6546 507.12 72.6546 508.162 71.6119L525.594 54.17C529.942 49.8193 536.994 49.8193 541.342 54.17C543.347 56.1759 546.598 56.1759 548.603 54.17L573.878 28.8793C575.049 27.7074 576.949 27.7068 578.121 28.878Z" fill="url(#paint6_linear_8_340)"/>
</g>
<path d="M519 150C519 147.791 520.791 146 523 146H643C645.209 146 647 147.791 647 150V294C647 296.209 645.209 298 643 298H523C520.791 298 519 296.209 519 294V150Z" fill="white"/>
<path fill-rule="evenodd" clip-rule="evenodd" d="M583.5 254C601.449 254 616 239.449 616 221.5C616 203.551 601.449 189 583.5 189C565.551 189 551 203.551 551 221.5C551 239.449 565.551 254 583.5 254ZM583.5 268C609.181 268 630 247.181 630 221.5C630 195.819 609.181 175 583.5 175C557.819 175 537 195.819 537 221.5C537 247.181 557.819 268 583.5 268Z" fill="url(#paint7_linear_8_340)"/>
<path d="M566.609 216.719C566.609 218.99 567.198 220.786 568.375 222.109C569.552 223.422 571.156 224.078 573.188 224.078C575.073 224.078 576.547 223.406 577.609 222.062C578.682 220.719 579.219 219.042 579.219 217.031H578.047C578.047 218.177 577.729 219.089 577.094 219.766C576.458 220.443 575.667 220.781 574.719 220.781C573.708 220.781 572.958 220.443 572.469 219.766C571.979 219.078 571.734 218.073 571.734 216.75C571.734 215.24 571.979 214.156 572.469 213.5C572.969 212.833 573.708 212.5 574.688 212.5C575.74 212.5 576.557 212.932 577.141 213.797C577.724 214.661 578.016 216.208 578.016 218.438L578.156 219.062C578.156 222.365 577.432 224.708 575.984 226.094C574.536 227.479 572.49 228.167 569.844 228.156H569.141V232.125H569.953C574.203 232.083 577.448 230.932 579.688 228.672C581.938 226.401 583.062 223.344 583.062 219.5V218.688C583.062 215.229 582.286 212.729 580.734 211.188C579.182 209.635 577.177 208.859 574.719 208.859C572.25 208.859 570.281 209.573 568.812 211C567.344 212.427 566.609 214.333 566.609 216.719Z" fill="#242742"/>
<path d="M593.922 232H598.75V209.25H594.234L584.125 223.812V227.25H601.266V223.359H596.328L595.516 223.438H589.016L593.844 215.875H594V225.469L593.922 226.016V232Z" fill="#242742"/>
<defs>
<filter id="filter0_d_8_340" x="0" y="110" width="497" height="353" filterUnits="userSpaceOnUse" color-interpolation-filters="sRGB">
<feFlood flood-opacity="0" result="BackgroundImageFix"/>
<feColorMatrix in="SourceAlpha" type="matrix" values="0 0 0 0 0 0 0 0 0 0 0 0 0 0 0 0 0 0 127 0" result="hardAlpha"/>
<feOffset dy="24"/>
<feGaussianBlur stdDeviation="16"/>
<feComposite in2="hardAlpha" operator="out"/>
<feColorMatrix type="matrix" values="0 0 0 0 0 0 0 0 0 0 0 0 0 0 0 0 0 0 0.1 0"/>
<feBlend mode="normal" in2="BackgroundImageFix" result="effect1_dropShadow_8_340"/>
<feBlend mode="normal" in="SourceGraphic" in2="effect1_dropShadow_8_340" result="shape"/>
</filter>
<filter id="filter1_d_8_340" x="16" y="125" width="465" height="323" filterUnits="userSpaceOnUse" color-interpolation-filters="sRGB">
<feFlood flood-opacity="0" result="BackgroundImageFix"/>
<feColorMatrix in="SourceAlpha" type="matrix" values="0 0 0 0 0 0 0 0 0 0 0 0 0 0 0 0 0 0 127 0" result="hardAlpha"/>
<feOffset dy="24"/>
<feGaussianBlur stdDeviation="16"/>
<feComposite in2="hardAlpha" operator="out"/>
<feColorMatrix type="matrix" values="0 0 0 0 0 0 0 0 0 0 0 0 0 0 0 0 0 0 0.1 0"/>
<feBlend mode="normal" in2="BackgroundImageFix" result="effect1_dropShadow_8_340"/>
<feBlend mode="normal" in="SourceGraphic" in2="effect1_dropShadow_8_340" result="shape"/>
</filter>
<filter id="filter2_d_8_340" x="321" y="14" width="497" height="315" filterUnits="userSpaceOnUse" color-interpolation-filters="sRGB">
<feFlood flood-opacity="0" result="BackgroundImageFix"/>
<feColorMatrix in="SourceAlpha" type="matrix" values="0 0 0 0 0 0 0 0 0 0 0 0 0 0 0 0 0 0 127 0" result="hardAlpha"/>
<feOffset dy="24"/>
<feGaussianBlur stdDeviation="16"/>
<feComposite in2="hardAlpha" operator="out"/>
<feColorMatrix type="matrix" values="0 0 0 0 0 0 0 0 0 0 0 0 0 0 0 0 0 0 0.1 0"/>
<feBlend mode="normal" in2="BackgroundImageFix" result="effect1_dropShadow_8_340"/>
<feBlend mode="normal" in="SourceGraphic" in2="effect1_dropShadow_8_340" result="shape"/>
</filter>
<linearGradient id="paint0_linear_8_340" x1="137.5" y1="129" x2="445.5" y2="392" gradientUnits="userSpaceOnUse">
<stop stop-color="#FF3E83"/>
<stop offset="1" stop-color="#FF9F2E"/>
</linearGradient>
<linearGradient id="paint1_linear_8_340" x1="137.5" y1="129" x2="445.5" y2="392" gradientUnits="userSpaceOnUse">
<stop stop-color="#FF3E83"/>
<stop offset="1" stop-color="#FF9F2E"/>
</linearGradient>
<linearGradient id="paint2_linear_8_340" x1="438" y1="219" x2="438" y2="535" gradientUnits="userSpaceOnUse">
<stop stop-color="#FFB443"/>
<stop offset="1" stop-color="#FF5B64" stop-opacity="0"/>
</linearGradient>
<linearGradient id="paint3_linear_8_340" x1="184.446" y1="-59.5543" x2="184.446" y2="256.446" gradientUnits="userSpaceOnUse">
<stop stop-color="#FFB443"/>
<stop offset="1" stop-color="#FF5B64" stop-opacity="0"/>
</linearGradient>
<linearGradient id="paint4_linear_8_340" x1="569.5" y1="22" x2="569.5" y2="273" gradientUnits="userSpaceOnUse">
<stop stop-color="#F8F8F8"/>
<stop offset="1" stop-color="#EEEEEE"/>
</linearGradient>
<linearGradient id="paint5_linear_8_340" x1="401" y1="22" x2="401" y2="273" gradientUnits="userSpaceOnUse">
<stop stop-color="#CACBE8"/>
<stop offset="1" stop-color="#EEEEEE"/>
<stop offset="1" stop-color="#CACBE8"/>
</linearGradient>
<linearGradient id="paint6_linear_8_340" x1="576.349" y1="27.5116" x2="468.229" y2="107.332" gradientUnits="userSpaceOnUse">
<stop stop-color="#FF9049"/>
<stop offset="1" stop-color="#FF5E5E"/>
</linearGradient>
<linearGradient id="paint7_linear_8_340" x1="583.5" y1="175" x2="583.5" y2="268" gradientUnits="userSpaceOnUse">
<stop stop-color="#FF6A3D"/>
<stop offset="1" stop-color="#FF5B66"/>
</linearGradient>
</defs>
</svg>
